# xmcd CD database file
#
# Track frame offsets:
#	150
#	12292
#	25237
#	39225
#	51041
#	63915
#	78270
#	90484
#	103212
#	116078
#	128457
#	141212
#	155381
#	167733
#	180121
#	194606
#	207006
#	220411
#
# Disc length: 3100 seconds
#
# Revision: 0
# Processed by: cddbd v1.5.1PL0 Copyright (c) Steve Scherf et al.
# Submitted via: CDex 1.51
#
DISCID=e70c1a12
DTITLE=Charlie Parker - Constellation
DYEAR=2004
DGENRE=Jazz
TTITLE0=La Paloma
TTITLE1=Bird Feathers
TTITLE2=Klact-Oveeseds-Tene
TTITLE3=Another Hair-Do
TTITLE4=Mama Inez
TTITLE5=Bird Of Paradise
TTITLE6=Half Nelson
TTITLE7=Blue Bird
TTITLE8=Fiesta
TTITLE9=Klaunstance
TTITLE10=Little Willie Leaps
TTITLE11=Cool Blues
TTITLE12=La Cucaracha
TTITLE13=Tico-Tico
TTITLE14=Begin The Beguine
TTITLE15=Estrellita
TTITLE16=Bongo Beep
TTITLE17=Bird's Nest
EXTD=YEAR: 2004
EXTT0=
EXTT1=
EXTT2=
EXTT3=
EXTT4=
EXTT5=
EXTT6=
EXTT7=
EXTT8=
EXTT9=
EXTT10=
EXTT11=
EXTT12=
EXTT13=
EXTT14=
EXTT15=
EXTT16=
EXTT17=
PLAYORDER=
